<svg xmlns="http://www.w3.org/2000/svg" xml:space="preserve"
	 style="shape-rendering:geometricPrecision;text-rendering:geometricPrecision;image-rendering:optimizeQuality;fill-rule:evenodd;clip-rule:evenodd"
	 viewBox="0 0 456.31 447.18"><defs><linearGradient id="b" x1="169.2" x2="275.59" y1="114.59" y2="353.84" gradientUnits="userSpaceOnUse"><stop offset="0" style="stop-opacity:1;stop-color:#2e2140"/><stop
	offset="1" style="stop-opacity:1;stop-color:#b4b5bf"/></linearGradient><linearGradient
	id="a" x1="142.26" x2="263.1" y1="110.93" y2="308.62"
	gradientUnits="userSpaceOnUse"><stop offset="0" style="stop-opacity:1;stop-color:#411f1e"/>
	<stop offset="1" style="stop-opacity:1;stop-color:#cc9393"/></linearGradient></defs>
	<path
		d="M352.27 220.8c0-12.73-1.61-24.03-4.84-33.92-3.23-9.89-7.54-18.6-12.92-26.13-5.38-7.54-11.7-14.05-18.94-19.53-7.24-5.48-14.98-9.98-23.2-13.51-6.27-2.74-12.63-4.8-19.09-6.17a166.22 166.22 0 0 0-19.38-2.94c-6.46-.59-12.92-.88-19.38-.88h-18.79c-21.93 0-40.62.05-56.09.15-15.47.1-27.31.15-35.53.15v2.94c5.09.59 9.69 1.57 13.8 2.94 4.11 1.37 7.63 3.82 10.57 7.34 1.17 1.37 2.06 3.28 2.64 5.73.59 2.45 1.03 5.19 1.32 8.22.29 3.03.44 6.31.44 9.84v84.86c0 5.87-.05 11.6-.15 17.18-.1 5.58-.19 10.72-.29 15.42-.1 4.7-.15 8.42-.15 11.16 0 3.13-.1 6.36-.29 9.69-.2 3.33-.49 6.46-.88 9.4-.39 2.94-.83 5.58-1.32 7.93-.49 2.35-1.22 4.01-2.2 4.99-2.35 2.74-5.83 5.09-10.42 7.05-4.6 1.96-9.35 3.23-14.24 3.82v2.94h107.18c9 0 18.3-.64 27.89-1.91s18.89-3.47 27.9-6.61c9.01-3.13 17.52-7.34 25.55-12.63 8.03-5.29 15.07-11.94 21.14-19.97s10.86-17.62 14.39-28.78c3.52-11.16 5.29-24.08 5.29-38.76zm-36.12.59c0 25.65-5.24 47.23-15.71 64.75-10.47 17.52-26.28 29.32-47.42 35.39-4.5 1.37-9.35 2.3-14.54 2.79-5.19.49-10.23.73-15.12.73-5.29 0-10.91-.54-16.88-1.61-5.97-1.08-10.91-3.57-14.83-7.49-1.17-1.17-2.2-2.99-3.08-5.43-.88-2.45-1.52-5.19-1.91-8.22-.39-3.04-.73-6.17-1.03-9.4-.29-3.23-.44-6.22-.44-8.96-.2-6.46-.29-14.78-.29-24.96v-34.36c0-23.3.1-43.36.29-60.2.2-16.84.78-30.05 1.76-39.64 1.37-.39 3.18-.69 5.43-.88 2.25-.2 4.7-.44 7.34-.73 2.64-.29 5.33-.49 8.07-.59 2.74-.1 5.29-.15 7.63-.15 6.85 0 12.63.25 17.33.73 4.7.49 9 1.13 12.92 1.91 10.18 1.76 19.58 5.68 28.19 11.75 8.62 6.07 16.05 13.46 22.32 22.17 6.26 8.71 11.16 18.45 14.68 29.22 3.52 10.77 5.29 21.83 5.29 33.18z"
		style="fill:url(#a);fill-rule:nonzero"/>
	<path
		d="M456.31 222.07c0-29.2-5.07-57.19-15.21-83.96-10.14-26.77-24.74-50.4-43.8-70.88-19.06-20.48-42.28-36.81-69.66-48.98C300.26 6.08 269.33 0 234.86 0c-31.64 0-61.75 5.17-90.35 15.52-28.6 10.34-53.54 25.15-74.83 44.41-21.3 19.27-38.23 42.79-50.8 70.58S.02 189.63.02 224.51c0 32.85 5.98 62.97 17.95 90.35 11.97 27.38 28.29 50.9 48.98 70.58 20.69 19.67 44.82 34.88 72.4 45.63 27.58 10.75 56.78 16.12 87.61 16.12 31.23 0 60.74-5.48 88.52-16.43 27.78-10.95 52.12-26.57 73.01-46.85 20.89-20.28 37.42-44.21 49.59-71.79 12.17-27.58 18.25-57.6 18.25-90.04zm-75.44.61c0 25.55-3.14 51.11-9.43 76.66-6.29 25.55-15.72 48.57-28.29 69.06-12.57 20.48-28.29 37.21-47.15 50.19-18.86 12.98-41.07 19.47-66.62 19.47-25.55 0-47.96-5.88-67.23-17.64-19.27-11.76-35.29-27.38-48.06-46.85-12.78-19.47-22.41-41.98-28.9-67.53-6.49-25.55-9.74-52.12-9.74-79.7 0-26.36 2.94-52.43 8.82-78.18 5.88-25.75 15.01-48.77 27.38-69.05 12.37-20.28 28.19-36.81 47.46-49.59 19.27-12.78 42.08-19.16 68.45-19.16 25.96 0 48.47 6.39 67.53 19.16 19.06 12.78 34.98 29.41 47.76 49.89 12.78 20.48 22.31 43.3 28.6 68.44 6.29 25.15 9.43 50.09 9.43 74.83z"
		style="fill:url(#b);fill-rule:nonzero"/></svg>